<mxfile host="app.diagrams.net" modified="2023-09-28T14:26:10.160Z" agent="Mozilla/5.0 (Windows NT 10.0; Win64; x64) AppleWebKit/537.36 (KHTML, like Gecko) Chrome/117.0.0.0 Safari/537.36 Edg/117.0.2045.43" version="22.0.0" etag="HbZA2q4kCm7LYXn3Xlzf" type="github">
  <diagram name="Page-1" id="0gyjBQ_TNapP1gCw7MfS">
    <mxGraphModel>
      <root>
        <mxCell id="0" />
        <mxCell id="1" parent="0" />
      </root>
    </mxGraphModel>
  </diagram>
</mxfile>
